<svg width="48" height="48" viewBox="0 0 48 48" fill="none" xmlns="http://www.w3.org/2000/svg">
<g clip-path="url(#clip0_1522_627)">
<g clip-path="url(#clip1_1522_627)">
<path d="M7.65973 -0.000902632C3.42946 -0.000902632 0 3.42818 0 7.65901V40.3406C0 44.5709 3.42946 48.0005 7.65973 48.0005H40.3415C44.5718 48.0005 48.0013 44.5709 48.0013 40.3406V7.65901C48.0013 3.42818 44.5718 -0.000902632 40.3415 -0.000902632H7.65973Z" fill="#442059"/>
<path d="M27.2314 6.06632L40.2776 6.0892L22.5688 24.0507L39.0833 40.8638H25.991L9.06323 24.0966L27.2314 6.06632Z" fill="white"/>
<path d="M8.44361 6.93911L17.8603 9.12113V12.9339C14.7289 16.1261 11.5746 19.3594 8.44361 22.5518C8.42834 17.3614 8.45892 12.1296 8.44361 6.93911Z" fill="white"/>
<path d="M8.44366 41.2941V25.6785L17.8604 35.3282V39.1179L8.44366 41.2941Z" fill="white"/>
<path d="M34.6337 29.9996H39.8602C39.6688 27.3148 39.48 24.6627 39.2886 21.9776C39.9732 21.3979 40.4079 20.5319 40.4079 19.5645C40.4079 17.8184 38.9928 16.4035 37.2472 16.4035C35.5012 16.4035 34.0861 17.8184 34.0861 19.5645C34.0861 20.531 34.5197 21.3967 35.2039 21.9762C35.0111 24.6798 34.8265 27.2965 34.6337 29.9996Z" fill="white"/>
</g>
</g>
<defs>
<clipPath id="clip0_1522_627">
<rect width="48" height="48" fill="white"/>
</clipPath>
<clipPath id="clip1_1522_627">
<rect width="48" height="48" fill="white"/>
</clipPath>
</defs>
</svg>
